<?xml version="1.0"?>
<svg xmlns="http://www.w3.org/2000/svg" xmlns:xlink="http://www.w3.org/1999/xlink" xmlns:svgjs="http://svgjs.com/svgjs" version="1.1" width="512" height="512" x="0" y="0" viewBox="0 0 256 256" style="enable-background:new 0 0 512 512" xml:space="preserve" class=""><g><path xmlns="http://www.w3.org/2000/svg" d="m244.439 109.287a34.84 34.84 0 0 0 -18.73-9.03h-.02c-10-1.53-23.55.82-39.47 14.66-3.779-1.862-5.992-2.8-7.04-3.26-1-.432-.919-.449-5.12-2.13-.923-.367-4.3-1.637-5.47-2.02-35.69-12.42-64.78-6.81-81.94-.62-.02.01-.03.01-.05.02a81.982 81.982 0 0 0 -16.82 8.01c-.02-.02-.05-.039-.07-.06-15.89-13.78-29.41-16.13-39.4-14.6h-.02a34.84 34.84 0 0 0 -18.73 9.03c18.81-52.95 86.27-87.83 108.94-98.27 3.172-1.484 7.48-3.28 7.48-3.28h.04s4.189 1.74 7.48 3.28c22.67 10.44 90.13 45.32 108.94 98.27z" fill="#ffffff" data-original="#5fcdff" style="" class=""/><path xmlns="http://www.w3.org/2000/svg" d="m186.219 114.917c-3.779-1.862-5.992-2.8-7.04-3.26-1-.432-.919-.449-5.12-2.13-.923-.367-4.3-1.637-5.47-2.02-35.69-12.42-64.78-6.81-81.94-.62-.02.01-.03.01-.05.02a81.982 81.982 0 0 0 -16.82 8.01c-.02-.02-.05-.039-.07-.06 1.95-9.1 14.39-61.19 50.79-99.72 2.174-2.313 4.813-4.941 7.48-7.4.01 0 .01 0 .02-.01.01.01.01.01.02.01 1.52 1.41 3.01 2.84 4.45 4.29.882.866 2.267 2.3 3.03 3.11 39.97 42.22 50.72 99.78 50.72 99.78z" fill="#ffffff" data-original="#ffe2e2" style="" class=""/><path xmlns="http://www.w3.org/2000/svg" d="m244.439 109.287a34.84 34.84 0 0 0 -18.73-9.03h-.02c-10-1.53-23.55.82-39.47 14.66-3.779-1.862-5.992-2.8-7.04-3.26-1-.432-.919-.449-5.12-2.13-.923-.367-4.3-1.637-5.47-2.02-35.69-12.42-64.78-6.81-81.94-.62-.02.01-.03.01-.05.02a81.982 81.982 0 0 0 -16.82 8.01c-.02-.02-.05-.039-.07-.06-15.89-13.78-29.41-16.13-39.4-14.6h-.02a34.84 34.84 0 0 0 -18.73 9.03c18.81-52.95 86.27-87.83 108.94-98.27 3.172-1.484 7.48-3.28 7.48-3.28h.04s4.189 1.74 7.48 3.28c22.67 10.44 90.13 45.32 108.94 98.27z" fill="#ffffff" data-original="#5fcdff" style="" class=""/><path xmlns="http://www.w3.org/2000/svg" d="m244.439 109.287a34.84 34.84 0 0 0 -18.73-9.03h-.02c-22.73-47.879-83.84-79.41-105.19-89.24 3.172-1.484 7.48-3.28 7.48-3.28h.04s4.189 1.74 7.48 3.28c22.67 10.44 90.13 45.32 108.94 98.27z" fill="#ffffff" data-original="#30b6ff" style="" class=""/><path xmlns="http://www.w3.org/2000/svg" d="m135.5 11.017c-21.35 9.83-82.46 41.361-105.19 89.24h-.02a34.84 34.84 0 0 0 -18.73 9.03c18.81-52.95 86.27-87.83 108.94-98.27 3.172-1.484 7.48-3.28 7.48-3.28h.04s4.188 1.74 7.48 3.28z" fill="#ffffff" data-original="#73d7f9" style="" class=""/><path xmlns="http://www.w3.org/2000/svg" d="m186.219 114.917c-3.779-1.862-5.992-2.8-7.04-3.26-1-.432-.919-.449-5.12-2.13-.923-.367-4.3-1.637-5.47-2.02-35.69-12.42-64.78-6.81-81.94-.62-.02.01-.03.01-.05.02a81.982 81.982 0 0 0 -16.82 8.01c-.02-.02-.05-.039-.07-.06 1.95-9.1 14.39-61.19 50.79-99.72 2.174-2.313 4.813-4.941 7.48-7.4.01 0 .01 0 .02-.01.01.01.01.01.02.01 1.52 1.41 3.01 2.84 4.45 4.29.882.866 2.267 2.3 3.03 3.11 39.97 42.22 50.72 99.78 50.72 99.78z" fill="#ffffff" data-original="#ffe2e2" style="" class=""/><path xmlns="http://www.w3.org/2000/svg" d="m135.5 15.137q-3.945 4.17-7.52 8.52c-25.61 31.07-37.2 67.41-41.33 83.23-.02.01-.03.01-.05.02a81.982 81.982 0 0 0 -16.82 8.01c-.02-.02-.05-.039-.07-.06 1.95-9.1 14.39-61.19 50.79-99.72 2.326-2.474 4.907-5.024 7.48-7.4.01 0 .01 0 .02-.01.01.01.01.01.02.01 1.52 1.41 3.01 2.84 4.45 4.29.881.866 2.266 2.298 3.03 3.11z" fill="#ffffff" data-original="#ffefee" style="" class=""/><path xmlns="http://www.w3.org/2000/svg" d="m186.219 114.917c-3.779-1.862-5.992-2.8-7.04-3.26-1-.432-.919-.449-5.12-2.13-.923-.367-4.3-1.637-5.47-2.02-4.44-16.74-15.84-53.47-40.61-83.85q-3.555-4.363-7.48-8.52 3.57-3.8 7.48-7.4c.01 0 .01 0 .02-.01.01.01.01.01.02.01 1.52 1.41 3.01 2.84 4.45 4.29.882.866 2.267 2.3 3.03 3.11 39.97 42.22 50.72 99.78 50.72 99.78z" fill="#ffffff" data-original="#ffcfcf" style="" class=""/><g xmlns="http://www.w3.org/2000/svg" fill="#5f266d"><path d="m248.209 107.948c-16.8-47.279-74.445-85.525-118.655-103.9a4.3 4.3 0 0 0 -3.114 0 315.036 315.036 0 0 0 -64.268 36.971c-27.75 20.945-46.046 43.464-54.382 66.929a4.006 4.006 0 0 0 6.654 4.11 31.456 31.456 0 0 1 16.47-7.846c11.517-1.767 23.683 2.835 36.174 13.668a4.013 4.013 0 0 0 4.937.349c13.759-9.212 35.56-13.842 51.974-14.127v140.146h-22.555a4 4 0 0 0 0 8h53.11a4 4 0 1 0 0-8h-22.554v-140.009c29.863 1.535 51.229 14.094 53.32 14.576a4.053 4.053 0 0 0 3.524-.879c12.507-10.872 24.7-15.491 36.241-13.724.047.006.095.013.143.018a31.282 31.282 0 0 1 16.326 7.826 4 4 0 0 0 6.655-4.108zm-180.928-.185c-14.145-10.6-30.592-15.631-46.825-8.875 19.844-38.224 65.082-65.677 90.113-78.568-27.005 32.467-39.095 71.067-43.288 87.443zm58.748-11.689a118.483 118.483 0 0 0 -50.307 11.032c9.087-33.666 26.738-69.092 52.278-93.877 25.561 24.861 43.5 60.609 52.443 94.612a136.537 136.537 0 0 0 -54.414-11.767zm62.688 11.691c-3.742-15.166-15.461-54.154-43.245-87.423 25.025 12.891 70.24 40.337 90.071 78.546-16.228-6.752-32.674-1.731-46.826 8.877z" fill="#515359" data-original="#5f266d" style="" class=""/><path d="m138.431 57.846a4 4 0 0 0 6.875-4.09c-1.156-1.942-2.345-3.864-3.536-5.712a4 4 0 1 0 -6.725 4.332c1.14 1.768 2.278 3.609 3.386 5.47z" fill="#515359" data-original="#5f266d" style="" class=""/><path d="m145.457 70.756c2.858 5.744 5.528 11.786 7.933 17.959a4 4 0 0 0 7.455-2.9c-2.493-6.4-5.26-12.661-8.226-18.62a4 4 0 1 0 -7.162 3.565z" fill="#515359" data-original="#5f266d" style="" class=""/></g></g></svg>
